<?xml version="1.0" encoding="utf-8"?>
<!-- Generator: Adobe Illustrator 26.5.0, SVG Export Plug-In . SVG Version: 6.00 Build 0)  -->
<svg version="1.1" id="Layer_1" xmlns="http://www.w3.org/2000/svg" xmlns:xlink="http://www.w3.org/1999/xlink" x="0px" y="0px"
	 viewBox="0 0 7.5 8.4" style="enable-background:new 0 0 7.5 8.4;" xml:space="preserve">
<style type="text/css">
	.st0{fill-rule:evenodd;clip-rule:evenodd;fill:#FFFFFE;}
</style>
<g id="Page-3">
	<g id="_x31_08485-RSH-Cart-Alcool-Personnalise_x5F_v7_x5F_HR" transform="translate(-166.000000, -133.000000)">
		<g id="Pastilles" transform="translate(153.740200, 133.912500)">
			<path id="Fill-1064" class="st0" d="M19.2,3.4c-0.2-0.2-0.5-0.3-0.8-0.3c-0.3,0-0.6,0.1-0.8,0.2c-0.1,0.1-0.2,0.1-0.3,0.2l0,0
				l0,0c-0.1,0.1-0.2,0.2-0.3,0.3c0,0-0.1,0.1-0.1,0.1l-0.1,0.1l-0.4,0.3l0-0.1l0-0.1V4.3c0-0.4,0.1-0.6,0.2-0.7
				c0.1-0.2,0.4-0.3,0.5-0.4C17,3.1,17,3.1,17,3.1c0.5-0.4,0.7-0.7,0.7-0.9c0.1-0.3,0.1-0.7,0-1.1c-0.1-0.6-0.5-1.9-0.5-1.9l0-0.1
				H16h-1.1l0,0.1c0,0-0.4,1.2-0.5,1.9c-0.1,0.4-0.1,0.8,0,1.1c0.1,0.2,0.2,0.5,0.7,0.9c0,0,0.1,0,0.1,0.1c0.2,0.1,0.4,0.3,0.5,0.4
				c0.1,0.1,0.2,0.4,0.2,0.7v0.1v0.1l0,0.1l-0.4-0.3l-0.1-0.1c-0.1,0-0.1-0.1-0.1-0.1c-0.1-0.1-0.2-0.2-0.3-0.3l0,0l0,0
				c-0.1-0.1-0.2-0.2-0.3-0.2c-0.2-0.2-0.5-0.2-0.8-0.2c-0.3,0-0.6,0.1-0.8,0.3c-0.4,0.3-0.6,0.8-0.6,1.3c0,0.2,0.1,0.5,0.2,0.8
				C12.7,5.8,13,6,13.3,6.1l0.3,0.1c-0.2-0.5,0-0.8,0-0.8l0,0c0,0,0,0,0,0c0,0,0,0,0,0v0c0.1-0.1,0.2-0.2,0.3-0.2c0.1,0,0.1,0,0.2,0
				c0.3,0,0.5,0.2,0.8,0.5c0,0,0.1,0.1,0.1,0.1l0,0l-0.5,0.5l0.3,0.3l1.1-1v1.6h-1.1v0.4H16h1.3V7.1h-1.1V5.5l1.1,1l0.3-0.3L17,5.8
				l0,0c0,0,0.1-0.1,0.1-0.1c0.3-0.3,0.6-0.5,0.8-0.5c0.1,0,0.1,0,0.2,0c0.1,0,0.2,0.1,0.3,0.2v0c0,0,0,0,0,0c0,0,0,0,0,0l0,0
				c0,0,0.1,0.3,0,0.8l0.3-0.1C19,6,19.3,5.8,19.5,5.5c0.2-0.2,0.2-0.6,0.2-0.8C19.7,4.2,19.5,3.7,19.2,3.4L19.2,3.4z M15.3,5.5
				L15.3,5.5c0,0-0.1-0.1-0.1-0.1c-0.3-0.3-0.6-0.6-1.1-0.6c-0.1,0-0.2,0-0.3,0c-0.2,0.1-0.4,0.2-0.6,0.5c0,0.1-0.1,0.2-0.1,0.3l0,0
				l0,0c-0.1-0.1-0.2-0.2-0.3-0.3c-0.1-0.1-0.1-0.4-0.1-0.6c0-0.4,0.2-0.8,0.4-1c0.2-0.1,0.4-0.2,0.6-0.2c0.2,0,0.4,0.1,0.6,0.2
				c0.1,0.1,0.2,0.1,0.3,0.2l0.6,0.6c0.1,0.1,0.2,0.2,0.4,0.4l0.2,0.2L15.3,5.5z M16.1,3.4C16.1,3.4,16,3.4,16.1,3.4L16,3.5
				L16.1,3.4c-0.1,0.1-0.1,0-0.2,0c-0.2-0.2-0.4-0.4-0.6-0.5c0,0-0.1-0.1-0.1-0.1c-0.4-0.3-0.6-0.6-0.6-0.7c-0.1-0.2,0-0.5,0-0.9
				c0.1-0.5,0.4-1.3,0.5-1.7l0,0H16h0.9l0,0c0.1,0.3,0.4,1.2,0.5,1.7c0.1,0.4,0.1,0.7,0,0.9c0,0.1-0.2,0.4-0.6,0.7
				c0,0-0.1,0-0.1,0.1C16.5,3,16.2,3.2,16.1,3.4L16.1,3.4z M19.2,5.3c-0.1,0.1-0.2,0.2-0.3,0.3l0,0l0,0c0-0.1,0-0.2-0.1-0.3
				c-0.1-0.2-0.3-0.4-0.6-0.5c-0.1,0-0.2,0-0.3,0c-0.5,0-0.8,0.3-1.1,0.6c0,0-0.1,0.1-0.1,0.1l0,0l-0.5-0.4l0.2-0.2
				c0.1-0.1,0.2-0.2,0.4-0.4L17.4,4c0.1-0.1,0.2-0.2,0.3-0.2c0.2-0.1,0.4-0.2,0.6-0.2c0.2,0,0.4,0.1,0.6,0.2c0.3,0.2,0.4,0.6,0.4,1
				C19.3,4.9,19.3,5.2,19.2,5.3L19.2,5.3z"/>
		</g>
	</g>
</g>
</svg>
