<?xml version="1.0" encoding="utf-8"?>
<!-- Generator: Adobe Illustrator 26.5.0, SVG Export Plug-In . SVG Version: 6.00 Build 0)  -->
<svg version="1.1" id="Layer_1" xmlns="http://www.w3.org/2000/svg" xmlns:xlink="http://www.w3.org/1999/xlink" x="0px" y="0px"
	 viewBox="0 0 8.3 8.3" style="enable-background:new 0 0 8.3 8.3;" xml:space="preserve">
<style type="text/css">
	.st0{fill-rule:evenodd;clip-rule:evenodd;fill:#FFFFFF;}
</style>
<path class="st0" d="M4.1,0C1.8,0,0,1.8,0,4.1s1.8,4.1,4.1,4.1s4.1-1.8,4.1-4.1S6.4,0,4.1,0z M3.9,4.8C4,5,4.2,5.1,4.3,5.1
	c0.3,0,0.6-0.1,0.9-0.2l0.1,0.9C5,5.9,4.7,6,4.3,6C3.8,6,3.4,5.8,3.1,5.5C2.8,5.1,2.7,4.7,2.7,4.1c0-0.6,0.2-1.1,0.5-1.4
	c0.3-0.4,0.7-0.5,1.2-0.5c0.2,0,0.4,0,0.6,0.1c0.2,0.1,0.3,0.1,0.5,0.2L5.1,3.3c0,0,0,0-0.1-0.1c-0.1,0-0.1-0.1-0.1-0.1
	c0,0-0.1,0-0.1,0c-0.1,0-0.1,0-0.1,0c0,0-0.1,0-0.1,0c0,0-0.1,0-0.1,0C4.2,3.1,4,3.2,3.9,3.4C3.8,3.6,3.7,3.8,3.7,4.1
	C3.7,4.4,3.8,4.6,3.9,4.8z"/>
</svg>
