<svg width="22" height="21" viewBox="0 0 22 21" fill="none" xmlns="http://www.w3.org/2000/svg">
<g clip-path="url(#clip0_720_11677)">
<path d="M21.7515 2.29481L19.5985 0.236762C19.4394 0.0853502 19.2237 0 18.9989 0C18.7741 0 18.5584 0.0853502 18.3992 0.236762L10.3706 7.89513C10.2847 7.97711 10.2181 8.07548 10.1756 8.18397L8.87988 11.4784C8.8036 11.6737 8.80865 11.8892 8.89453 12.0807C8.98041 12.2721 9.14004 12.4245 9.3411 12.5065C9.54165 12.5884 9.76746 12.5932 9.97205 12.5209L13.4233 11.287C13.537 11.2465 13.6401 11.1828 13.7259 11.1008L21.751 3.44005C21.9096 3.28815 21.9991 3.08225 21.9991 2.86719C21.9991 2.65212 21.9096 2.4467 21.751 2.29481H21.7515ZM12.6595 9.82877L11.1289 10.3688L11.6947 8.90776L18.9963 1.95196L19.9526 2.86478L12.6595 9.82877Z" fill="#231F20"/>
<path d="M19.7465 18.5695V11.5785C19.7465 11.2891 19.5848 11.0215 19.3221 10.8769C19.0594 10.7322 18.7361 10.7322 18.4734 10.8769C18.2107 11.0215 18.0491 11.2891 18.0491 11.5785V18.5724C18.0491 18.7869 17.9597 18.9933 17.8006 19.1452C17.6414 19.2971 17.4257 19.3825 17.2004 19.3825H2.54604C2.32073 19.3825 2.10503 19.2971 1.9459 19.1452C1.78677 18.9933 1.69736 18.7869 1.69736 18.5724V4.58168C1.69736 4.36661 1.78677 4.16071 1.9459 4.00882C2.10503 3.85692 2.32073 3.77157 2.54604 3.77157H9.86994C10.173 3.77157 10.4534 3.61727 10.605 3.36652C10.7565 3.11578 10.7565 2.80717 10.605 2.55642C10.4534 2.30567 10.173 2.15137 9.86994 2.15137H2.54604C1.87063 2.15137 1.22301 2.40742 0.745626 2.8631C0.268243 3.31878 0 3.93697 0 4.58168V18.5695C0 19.2142 0.268243 19.8324 0.745626 20.288C1.22301 20.7437 1.87063 20.9998 2.54604 20.9998H17.1999C17.8753 20.9998 18.5229 20.7437 19.0003 20.288C19.4777 19.8324 19.7459 19.2142 19.7459 18.5695H19.7465Z" fill="#231F20"/>
</g>
<defs>
<clipPath id="clip0_720_11677">
<rect width="22" height="21" fill="white"/>
</clipPath>
</defs>
</svg>
