<svg width="62" height="81" viewBox="0 0 62 81" fill="none" xmlns="http://www.w3.org/2000/svg">
<mask id="path-1-inside-1_112_5946" fill="white">
<path d="M57.133 21.0236L58.8798 7.11987C59.1063 5.31942 58.5597 3.50728 57.3826 2.14315C56.2038 0.780695 54.508 0 52.7251 0C50.9422 0 49.2447 0.780695 48.0676 2.14315C46.8889 3.5056 46.3438 5.31942 46.5704 7.11987L48.3155 21.0236C47.6654 21.383 47.0596 21.821 46.5113 22.3259H15.485C14.9367 21.821 14.3309 21.383 13.6808 21.0236L15.4259 7.11987C15.6525 5.31942 15.1058 3.5056 13.9287 2.14315C12.7516 0.780695 11.0541 0 9.27289 0C7.49165 0 5.79415 0.780695 4.61542 2.14315C3.43668 3.5056 2.89164 5.31775 3.1182 7.11987L4.86495 21.0236C2.86866 22.1219 1.33861 23.9257 0.560447 26.0956C-0.216072 28.2655 -0.18488 30.651 0.649098 32.7992C1.48308 34.9474 3.06238 36.7094 5.08658 37.7509L6.25054 43.4431H12.2952L13.4592 37.7509C15.6147 36.6341 17.2581 34.7083 18.0461 32.3813H20.6301C22.2012 32.3813 23.7066 33.0199 24.818 34.15C25.9295 35.2817 26.5533 36.8147 26.5549 38.4145V52.7111C26.5566 58.196 25.038 63.5706 22.1716 68.2163L19.2511 72.954H18.8948C17.5864 72.954 16.3305 73.4856 15.4046 74.4285C14.4787 75.3713 13.9583 76.6502 13.9566 77.9825V81H48.0414V77.9825C48.0414 76.6502 47.5193 75.3713 46.5934 74.4285C45.6675 73.4856 44.4116 72.9557 43.1032 72.954H42.7485L39.828 68.2163C36.9616 63.5706 35.443 58.1977 35.4447 52.7111V38.4145C35.4463 36.8147 36.0718 35.2817 37.1816 34.15C38.293 33.0182 39.7984 32.3829 41.3695 32.3796H43.9535C44.7416 34.7083 46.3849 36.6341 48.5404 37.7492L49.7044 43.4414H55.7474L56.9114 37.7492C58.9356 36.7077 60.5149 34.9457 61.3489 32.7975C62.1829 30.6494 62.214 28.2638 61.4375 26.0939C60.661 23.924 59.1293 22.1186 57.133 21.0219V21.0236ZM49.5501 3.4705C50.3528 2.54102 51.5086 2.00941 52.7251 2.00941C53.9416 2.00941 55.0973 2.54102 55.9001 3.4705C56.7029 4.39998 57.0756 5.63538 56.9196 6.8641L55.2402 20.2412C53.5952 19.7665 51.855 19.7665 50.21 20.2412L48.5306 6.8641C48.3763 5.63538 48.7473 4.39998 49.5517 3.4705H49.5501ZM6.09622 3.4705C6.899 2.54102 8.05639 2.00774 9.27124 2.00774C10.4861 2.00774 11.6435 2.54102 12.4463 3.4705C13.2491 4.39998 13.6201 5.63705 13.4658 6.8641L11.7863 20.2412C10.1413 19.7665 8.40115 19.7665 6.75618 20.2412L5.07673 6.8641C4.92241 5.63538 5.29343 4.39998 6.09786 3.4705H6.09622ZM10.688 41.4286H7.85447L7.2651 38.5466C8.58666 38.8475 9.95747 38.8475 11.279 38.5466L10.688 41.4286ZM9.27124 36.7579C7.33569 36.7579 5.47894 35.9755 4.10978 34.5813C2.74061 33.187 1.9723 31.2963 1.9723 29.3254C1.9723 27.3544 2.74225 25.4637 4.11142 24.0695C5.48059 22.6753 7.33734 21.8929 9.27289 21.8929C11.2084 21.8929 13.0652 22.6769 14.4327 24.0728C15.8019 25.467 16.5702 27.3577 16.5685 29.3287C16.5669 31.2997 15.797 33.1887 14.4278 34.5813C13.0603 35.9755 11.2052 36.7578 9.2696 36.7595V36.7562L9.27124 36.7579ZM43.1015 74.9634C43.8879 74.9634 44.6398 75.2827 45.1947 75.8477C45.7496 76.4128 46.0631 77.1801 46.0631 77.9792V78.9856H15.9299V77.9792C15.9299 77.1784 16.2435 76.4128 16.7984 75.8477C17.3533 75.2827 18.1068 74.9634 18.8915 74.9634H43.1015ZM43.4496 29.3254C43.4496 29.6731 43.4692 30.0208 43.507 30.3668H41.3662C39.2715 30.3685 37.2637 31.2178 35.7829 32.7257C34.3021 34.2335 33.4681 36.2781 33.4664 38.4129V52.7094C33.4648 58.5738 35.0884 64.3195 38.1518 69.2846L40.4141 72.9523H21.5823L23.8445 69.2846C26.9079 64.3195 28.5315 58.5738 28.5299 52.7094V38.4162C28.5266 36.2831 27.6943 34.2386 26.2135 32.7307C24.7327 31.2228 22.7232 30.3735 20.6284 30.3719H18.486C18.5238 30.0258 18.5435 29.6798 18.5435 29.3321C18.5451 27.565 18.0576 25.8348 17.1366 24.3386H44.8581C43.9371 25.8348 43.4495 27.5667 43.4512 29.3321V29.327L43.4496 29.3254ZM54.1386 41.4303H51.3067L50.7173 38.5483C52.0389 38.8492 53.408 38.8492 54.7312 38.5483L54.1402 41.4303H54.1386ZM52.7218 36.7595C50.7863 36.7595 48.9295 35.9772 47.562 34.5829C46.1928 33.1887 45.4245 31.298 45.4245 29.327C45.4245 27.3561 46.1928 25.4654 47.562 24.0728C48.9311 22.6786 50.7863 21.8962 52.7218 21.8962C54.6574 21.8962 56.5141 22.6786 57.8833 24.0728C59.2524 25.467 60.0207 27.3577 60.0207 29.327C60.0207 31.298 59.2508 33.1887 57.8816 34.5813C56.5125 35.9755 54.6574 36.7595 52.7218 36.7612V36.7579V36.7595Z"/>
</mask>
<path d="M57.133 21.0236L58.8798 7.11987C59.1063 5.31942 58.5597 3.50728 57.3826 2.14315C56.2038 0.780695 54.508 0 52.7251 0C50.9422 0 49.2447 0.780695 48.0676 2.14315C46.8889 3.5056 46.3438 5.31942 46.5704 7.11987L48.3155 21.0236C47.6654 21.383 47.0596 21.821 46.5113 22.3259H15.485C14.9367 21.821 14.3309 21.383 13.6808 21.0236L15.4259 7.11987C15.6525 5.31942 15.1058 3.5056 13.9287 2.14315C12.7516 0.780695 11.0541 0 9.27289 0C7.49165 0 5.79415 0.780695 4.61542 2.14315C3.43668 3.5056 2.89164 5.31775 3.1182 7.11987L4.86495 21.0236C2.86866 22.1219 1.33861 23.9257 0.560447 26.0956C-0.216072 28.2655 -0.18488 30.651 0.649098 32.7992C1.48308 34.9474 3.06238 36.7094 5.08658 37.7509L6.25054 43.4431H12.2952L13.4592 37.7509C15.6147 36.6341 17.2581 34.7083 18.0461 32.3813H20.6301C22.2012 32.3813 23.7066 33.0199 24.818 34.15C25.9295 35.2817 26.5533 36.8147 26.5549 38.4145V52.7111C26.5566 58.196 25.038 63.5706 22.1716 68.2163L19.2511 72.954H18.8948C17.5864 72.954 16.3305 73.4856 15.4046 74.4285C14.4787 75.3713 13.9583 76.6502 13.9566 77.9825V81H48.0414V77.9825C48.0414 76.6502 47.5193 75.3713 46.5934 74.4285C45.6675 73.4856 44.4116 72.9557 43.1032 72.954H42.7485L39.828 68.2163C36.9616 63.5706 35.443 58.1977 35.4447 52.7111V38.4145C35.4463 36.8147 36.0718 35.2817 37.1816 34.15C38.293 33.0182 39.7984 32.3829 41.3695 32.3796H43.9535C44.7416 34.7083 46.3849 36.6341 48.5404 37.7492L49.7044 43.4414H55.7474L56.9114 37.7492C58.9356 36.7077 60.5149 34.9457 61.3489 32.7975C62.1829 30.6494 62.214 28.2638 61.4375 26.0939C60.661 23.924 59.1293 22.1186 57.133 21.0219V21.0236ZM49.5501 3.4705C50.3528 2.54102 51.5086 2.00941 52.7251 2.00941C53.9416 2.00941 55.0973 2.54102 55.9001 3.4705C56.7029 4.39998 57.0756 5.63538 56.9196 6.8641L55.2402 20.2412C53.5952 19.7665 51.855 19.7665 50.21 20.2412L48.5306 6.8641C48.3763 5.63538 48.7473 4.39998 49.5517 3.4705H49.5501ZM6.09622 3.4705C6.899 2.54102 8.05639 2.00774 9.27124 2.00774C10.4861 2.00774 11.6435 2.54102 12.4463 3.4705C13.2491 4.39998 13.6201 5.63705 13.4658 6.8641L11.7863 20.2412C10.1413 19.7665 8.40115 19.7665 6.75618 20.2412L5.07673 6.8641C4.92241 5.63538 5.29343 4.39998 6.09786 3.4705H6.09622ZM10.688 41.4286H7.85447L7.2651 38.5466C8.58666 38.8475 9.95747 38.8475 11.279 38.5466L10.688 41.4286ZM9.27124 36.7579C7.33569 36.7579 5.47894 35.9755 4.10978 34.5813C2.74061 33.187 1.9723 31.2963 1.9723 29.3254C1.9723 27.3544 2.74225 25.4637 4.11142 24.0695C5.48059 22.6753 7.33734 21.8929 9.27289 21.8929C11.2084 21.8929 13.0652 22.6769 14.4327 24.0728C15.8019 25.467 16.5702 27.3577 16.5685 29.3287C16.5669 31.2997 15.797 33.1887 14.4278 34.5813C13.0603 35.9755 11.2052 36.7578 9.2696 36.7595V36.7562L9.27124 36.7579ZM43.1015 74.9634C43.8879 74.9634 44.6398 75.2827 45.1947 75.8477C45.7496 76.4128 46.0631 77.1801 46.0631 77.9792V78.9856H15.9299V77.9792C15.9299 77.1784 16.2435 76.4128 16.7984 75.8477C17.3533 75.2827 18.1068 74.9634 18.8915 74.9634H43.1015ZM43.4496 29.3254C43.4496 29.6731 43.4692 30.0208 43.507 30.3668H41.3662C39.2715 30.3685 37.2637 31.2178 35.7829 32.7257C34.3021 34.2335 33.4681 36.2781 33.4664 38.4129V52.7094C33.4648 58.5738 35.0884 64.3195 38.1518 69.2846L40.4141 72.9523H21.5823L23.8445 69.2846C26.9079 64.3195 28.5315 58.5738 28.5299 52.7094V38.4162C28.5266 36.2831 27.6943 34.2386 26.2135 32.7307C24.7327 31.2228 22.7232 30.3735 20.6284 30.3719H18.486C18.5238 30.0258 18.5435 29.6798 18.5435 29.3321C18.5451 27.565 18.0576 25.8348 17.1366 24.3386H44.8581C43.9371 25.8348 43.4495 27.5667 43.4512 29.3321V29.327L43.4496 29.3254ZM54.1386 41.4303H51.3067L50.7173 38.5483C52.0389 38.8492 53.408 38.8492 54.7312 38.5483L54.1402 41.4303H54.1386ZM52.7218 36.7595C50.7863 36.7595 48.9295 35.9772 47.562 34.5829C46.1928 33.1887 45.4245 31.298 45.4245 29.327C45.4245 27.3561 46.1928 25.4654 47.562 24.0728C48.9311 22.6786 50.7863 21.8962 52.7218 21.8962C54.6574 21.8962 56.5141 22.6786 57.8833 24.0728C59.2524 25.467 60.0207 27.3577 60.0207 29.327C60.0207 31.298 59.2508 33.1887 57.8816 34.5813C56.5125 35.9755 54.6574 36.7595 52.7218 36.7612V36.7579V36.7595Z" fill="#3C3C3C" stroke="white" mask="url(#path-1-inside-1_112_5946)"/>
</svg>
