<?xml version="1.0" encoding="utf-8"?>
<!-- Generator: Adobe Illustrator 27.8.0, SVG Export Plug-In . SVG Version: 6.00 Build 0)  -->
<svg version="1.1" id="Layer_1" xmlns="http://www.w3.org/2000/svg" xmlns:xlink="http://www.w3.org/1999/xlink" x="0px" y="0px"
	 viewBox="0 0 72 72" style="enable-background:new 0 0 72 72;" xml:space="preserve">
<style type="text/css">
	.st0{fill:#FFFFFF;}
	.st1{clip-path:url(#SVGID_00000010996617027968553460000004052216716566769584_);fill:#FFFFFF;}
</style>
<path class="st0" d="M3.2,36.3L36,3.6l32.7,32.7L36,69.1L3.2,36.3z M36,1.7L1.3,36.3L36,71l34.7-34.7L36,1.7z"/>
<g>
	<defs>
		<rect id="SVGID_1_" x="1.3" y="1.7" width="69.3" height="69.3"/>
	</defs>
	<clipPath id="SVGID_00000073001004901083843750000001386724345293529781_">
		<use xlink:href="#SVGID_1_"  style="overflow:visible;"/>
	</clipPath>
	<path style="clip-path:url(#SVGID_00000073001004901083843750000001386724345293529781_);fill:#FFFFFF;" d="M18.6,38.4
		c0-0.1,0.1-0.2,0.1-0.3c0.1-1.2,0.4-2.3,1.1-3.2c0.9-1.3,2.2-2.2,3.8-2.6c0.9-0.2,1.8-0.1,2.7,0.2c1.3,0.5,2.4,1.4,3.3,2.5
		c0.8,1,1.4,2.2,1.9,3.4c0.4,1.1,0.7,2.2,0.8,3.3c0.2,1,0.3,2.1,0.3,3.2c0,0,0,0.1,0,0.1c0.1,0,1.7,0.1,2,0c0-0.1,0-0.1,0-0.2
		c0-0.9,0-1.8-0.1-2.6c-0.1-1.8-0.5-3.5-1-5.3c-0.5-1.5-1-3-1.6-4.5c-0.4-1.2-0.9-2.3-1.3-3.5c-0.3-0.8-0.4-1.5-0.5-2.3
		c-0.2-1.7,0-3.4,0.5-5c0.7-2.5,2-4.8,3.6-6.8c0.5-0.7,1.1-1.3,1.7-2c0,0,0,0,0.1-0.1c0,0,0.1,0,0.1,0.1c1,1.1,2,2.3,2.8,3.6
		c1.2,1.8,2.1,3.8,2.6,5.9c0.3,1.3,0.4,2.6,0.4,3.9c-0.1,1-0.3,2-0.6,2.9c-0.8,2.1-1.5,4.2-2.3,6.4c-0.4,1.2-0.8,2.5-1.1,3.8
		c-0.1,0.7-0.3,1.4-0.3,2.2c-0.1,1.1-0.2,2.2-0.2,3.4V45c0.1,0,1.8,0,2,0c0-0.1,0-0.3,0-0.4c0-0.9,0.1-1.7,0.2-2.6
		c0.3-1.9,0.8-3.8,1.7-5.5c0.6-1.1,1.4-2.1,2.3-2.9c0.7-0.6,1.5-1,2.4-1.3c1.1-0.4,2.3-0.3,3.4,0.2c1.9,0.9,3.2,2.3,3.7,4.4
		c0.1,0.4,0.2,0.7,0.2,1.1c0,0.1,0,0.1,0,0.1v1.1c0,0.1,0,0.3-0.1,0.4c-0.3,1.8-1.2,3.2-2.7,4.1c-0.8,0.5-1.7,0.8-2.7,1
		c-0.1,0-0.1,0-0.2,0c0.1-0.2,0.2-0.3,0.2-0.5c0.2-0.6,0.3-1.3,0.2-2c-0.1-0.4-0.2-0.8-0.4-1.2c-0.3-0.5-0.7-0.9-1.3-1
		c-0.5-0.2-1-0.2-1.5-0.1c-0.4,0.1-0.8,0.2-1.2,0.4c-0.4,0.3-0.8,0.7-1.1,1.2c-0.6,0.9-0.8,2-0.9,3.1c0,0.1,0,0.1,0,0.2h3.4
		c0,0.2,0,3.6,0,3.8h-0.2c-2.2,0-4.4,0-6.7,0c-0.1,0-0.1,0-0.2,0c0,0,0,0.1,0,0.1c0,0.2,0,0.3,0.1,0.5c0.1,0.8,0.4,1.6,0.9,2.3
		c0.5,0.7,1.2,1.1,2,1.5c0.1,0,0.1,0.1,0.2,0.1c0,0.1-0.1,0.1-0.1,0.2c-0.3,0.7-0.8,1.3-1.5,1.8c-0.3,0.2-0.7,0.4-1.1,0.4
		c-0.1,0-0.2,0-0.4,0c-0.2,0.8-0.3,1.6-0.7,2.4c-0.4,0.8-0.9,1.4-1.4,2c0,0,0,0-0.1,0c-0.1-0.1-0.1-0.1-0.2-0.2
		c-0.5-0.6-1-1.2-1.3-2c-0.2-0.6-0.4-1.2-0.5-1.8c0-0.1-0.1-0.3-0.1-0.4c-0.1,0-0.1,0-0.1,0c-0.5,0-0.9-0.1-1.4-0.4
		c-0.7-0.4-1.2-1.1-1.6-1.8c0-0.1,0-0.1-0.1-0.2c0.9-0.4,1.7-0.9,2.2-1.7c0.6-0.8,0.9-1.7,0.9-2.7c-0.1,0-0.1,0-0.2,0
		c-2.2,0-4.4,0-6.7,0c-0.1,0-0.1,0-0.2,0c0-0.2,0-3.6,0-3.8h3.4c0-0.1,0-0.1,0-0.2c0-0.7-0.1-1.3-0.3-1.9c-0.2-0.6-0.5-1.2-0.9-1.8
		c-0.3-0.4-0.8-0.7-1.3-0.9C27.1,40,26.5,40,26,40.1c-0.5,0.1-0.9,0.3-1.3,0.7c-0.2,0.2-0.4,0.5-0.5,0.8c-0.3,0.6-0.3,1.3-0.2,1.9
		c0.1,0.4,0.2,0.8,0.4,1.2c0,0,0,0,0,0.1h-0.1c-0.8-0.2-1.6-0.4-2.3-0.8c-1.9-1-3-2.6-3.3-4.8c0-0.1,0-0.2-0.1-0.3V38.4z"/>
</g>
</svg>
