<?xml version="1.0" encoding="utf-8"?>
<!-- Generator: Adobe Illustrator 26.5.0, SVG Export Plug-In . SVG Version: 6.00 Build 0)  -->
<svg version="1.1" id="Layer_1" xmlns="http://www.w3.org/2000/svg" xmlns:xlink="http://www.w3.org/1999/xlink" x="0px" y="0px"
	 viewBox="0 0 8.3 8.3" style="enable-background:new 0 0 8.3 8.3;" xml:space="preserve">
<style type="text/css">
	.st0{fill-rule:evenodd;clip-rule:evenodd;fill:#FFFFFE;}
</style>
<g>
	<path class="st0" d="M4.1,3.1c-0.2,0-0.3,0.1-0.4,0.3C3.6,3.6,3.5,3.8,3.5,4.1c0,0.3,0,0.5,0.1,0.7s0.2,0.3,0.4,0.3
		c0.2,0,0.3-0.1,0.4-0.3c0.1-0.2,0.1-0.4,0.1-0.7c0-0.3,0-0.5-0.1-0.7C4.4,3.2,4.2,3.1,4.1,3.1z"/>
	<path class="st0" d="M4.1,0C1.8,0,0,1.8,0,4.1c0,2.3,1.8,4.1,4.1,4.1c2.3,0,4.1-1.8,4.1-4.1C8.3,1.8,6.4,0,4.1,0z M5.2,5.5
		C4.9,5.9,4.6,6.1,4.1,6.1C3.6,6.1,3.2,5.9,3,5.5C2.7,5.2,2.5,4.7,2.5,4.1c0-0.6,0.1-1,0.4-1.4c0.3-0.3,0.7-0.5,1.1-0.5
		c0.5,0,0.8,0.2,1.1,0.5c0.3,0.4,0.4,0.8,0.4,1.4C5.6,4.7,5.5,5.2,5.2,5.5z"/>
</g>
</svg>
