<?xml version="1.0" encoding="utf-8"?>
<!-- Generator: Adobe Illustrator 26.5.0, SVG Export Plug-In . SVG Version: 6.00 Build 0)  -->
<svg version="1.1" id="Layer_1" xmlns="http://www.w3.org/2000/svg" xmlns:xlink="http://www.w3.org/1999/xlink" x="0px" y="0px"
	 viewBox="0 0 8.3 8.3" style="enable-background:new 0 0 8.3 8.3;" xml:space="preserve">
<style type="text/css">
	.st0{fill-rule:evenodd;clip-rule:evenodd;fill:#FFFFFE;}
</style>
<g id="Page-4">
	<g id="_x31_08485-RSH-Cart-Alcool-Personnalise_x5F_v7_x5F_HR" transform="translate(-139.000000, -133.000000)">
		<g id="Group" transform="translate(87.000000, 131.500000)">
			<g id="Icones" transform="translate(39.823400, 1.896963)">
				<g id="Que" transform="translate(12.912700, 0.000000)">
					<path id="Fill-1232" class="st0" d="M3.4-0.2l3.9,3.9L3.4,7.7l-3.9-3.9L3.4-0.2z M3.4-0.4l-4.2,4.2l4.2,4.2l4.2-4.2L3.4-0.4z"
						/>
					<path id="Fill-1233" class="st0" d="M1.4,4C1.4,4,1.4,4,1.4,4c0-0.2,0.1-0.3,0.1-0.4c0.1-0.2,0.3-0.3,0.5-0.3
						c0.1,0,0.2,0,0.3,0c0.2,0.1,0.3,0.2,0.4,0.3C2.8,3.7,2.8,3.9,2.9,4C2.9,4.1,3,4.3,3,4.4c0,0.1,0,0.3,0,0.4c0,0,0,0,0,0
						c0,0,0.2,0,0.2,0c0,0,0,0,0,0c0-0.1,0-0.2,0-0.3c0-0.2-0.1-0.4-0.1-0.6C3.1,3.7,3,3.5,2.9,3.3C2.9,3.2,2.8,3,2.8,2.9
						c0-0.1-0.1-0.2-0.1-0.3c0-0.2,0-0.4,0.1-0.6C2.9,1.7,3,1.4,3.2,1.2C3.3,1.1,3.4,1,3.4,0.9c0,0,0,0,0,0c0,0,0,0,0,0
						c0.1,0.1,0.2,0.3,0.3,0.4C3.9,1.6,4,1.8,4.1,2.1c0,0.2,0.1,0.3,0,0.5c0,0.1,0,0.2-0.1,0.4C4,3.2,3.9,3.4,3.8,3.7
						C3.7,3.8,3.7,4,3.7,4.1c0,0.1,0,0.2,0,0.3c0,0.1,0,0.3,0,0.4c0,0,0,0,0,0c0,0,0.2,0,0.2,0c0,0,0,0,0,0c0-0.1,0-0.2,0-0.3
						C3.9,4.2,4,4,4.1,3.8c0.1-0.1,0.2-0.2,0.3-0.3c0.1-0.1,0.2-0.1,0.3-0.2c0.1,0,0.3,0,0.4,0c0.2,0.1,0.4,0.3,0.4,0.5
						c0,0,0,0.1,0,0.1c0,0,0,0,0,0v0.1c0,0,0,0,0,0c0,0.2-0.1,0.4-0.3,0.5C5.1,4.7,5,4.8,4.9,4.8c0,0,0,0,0,0c0,0,0,0,0-0.1
						c0-0.1,0-0.2,0-0.2c0,0,0-0.1-0.1-0.1c0-0.1-0.1-0.1-0.2-0.1c-0.1,0-0.1,0-0.2,0c-0.1,0-0.1,0-0.1,0.1c-0.1,0-0.1,0.1-0.1,0.1
						C4.2,4.5,4.1,4.7,4.1,4.8c0,0,0,0,0,0h0.4c0,0,0,0.4,0,0.5h0c-0.3,0-0.5,0-0.8,0c0,0,0,0,0,0c0,0,0,0,0,0c0,0,0,0,0,0.1
						c0,0.1,0.1,0.2,0.1,0.3C3.9,5.7,3.9,5.7,4,5.8c0,0,0,0,0,0c0,0,0,0,0,0C4,5.9,4,6,3.9,6c0,0-0.1,0-0.1,0c0,0,0,0,0,0
						c0,0.1,0,0.2-0.1,0.3c0,0.1-0.1,0.2-0.2,0.2c0,0,0,0,0,0c0,0,0,0,0,0C3.3,6.5,3.3,6.4,3.3,6.3c0-0.1,0-0.1-0.1-0.2c0,0,0,0,0,0
						c0,0,0,0,0,0c-0.1,0-0.1,0-0.2,0C2.9,6,2.9,5.9,2.8,5.8c0,0,0,0,0,0c0.1,0,0.2-0.1,0.3-0.2c0.1-0.1,0.1-0.2,0.1-0.3
						c0,0,0,0,0,0c-0.3,0-0.5,0-0.8,0c0,0,0,0,0,0c0,0,0-0.4,0-0.5h0.4c0,0,0,0,0,0c0-0.1,0-0.2,0-0.2c0-0.1-0.1-0.1-0.1-0.2
						c0-0.1-0.1-0.1-0.2-0.1c-0.1,0-0.1,0-0.2,0c-0.1,0-0.1,0-0.2,0.1c0,0,0,0.1-0.1,0.1c0,0.1,0,0.2,0,0.2c0,0.1,0,0.1,0,0.1
						c0,0,0,0,0,0c0,0,0,0,0,0c-0.1,0-0.2,0-0.3-0.1C1.5,4.6,1.4,4.4,1.4,4.1C1.4,4.1,1.4,4.1,1.4,4L1.4,4z"/>
				</g>
			</g>
		</g>
	</g>
</g>
</svg>
